<svg width="1211" height="224" viewBox="0 0 1211 224" fill="none" xmlns="http://www.w3.org/2000/svg">
<g clip-path="url(#clip0_644_10)">
<path d="M4.55664 98.5002C6.30153 101.238 7.90955 103.906 9.68868 106.472C41.7808 152.9 84.6843 184.273 139.221 199.396C150.169 202.441 161.288 204.459 172.579 205.794C187.325 207.573 202.105 207.949 216.885 207.196C235.634 206.238 254.144 203.467 272.413 199.191C272.516 199.156 272.619 199.191 272.79 199.293C271.592 199.806 270.429 200.354 269.232 200.867C268.034 201.38 266.802 201.893 265.605 202.372C247.985 209.42 229.783 214.45 211.035 217.529C196.631 219.89 182.158 220.985 167.584 220.437C118.761 218.726 77.6709 200.251 44.9627 163.712C29.4982 146.433 17.5577 126.898 7.77268 105.959C6.67787 103.598 5.65147 101.238 4.59086 98.8766C4.55665 98.8428 4.55664 98.7397 4.55664 98.5002Z" fill="white"/>
<path d="M173.093 0C170.082 2.49758 167.139 5.0978 164.573 8.04017C160.468 12.7958 157.594 18.1331 156.67 24.3942C155.849 29.9367 156.499 35.3767 157.97 40.7482C159.784 47.3514 162.658 53.5098 165.908 59.5316C168.029 63.5 169.774 67.606 170.493 72.0534C171.827 80.2991 168.953 86.6967 162.042 91.3154C157.218 94.5316 151.812 96.1398 146.167 97.0977C145.346 97.2346 144.525 97.3371 143.567 97.4397C143.772 97.2346 143.875 97.132 143.977 97.0633C151.162 92 153.694 84.9522 151.333 76.467C150.238 72.5324 148.493 68.9059 146.099 65.5871C141.822 59.5998 138.195 53.2703 136.313 46.0855C133.166 33.9055 136.45 23.573 145.448 14.9513C151.675 8.96391 159.134 4.99516 167.106 1.88174C169.056 1.12904 171.04 0.478988 173.093 0Z" fill="white"/>
<path d="M133.609 97.7135C134.602 96.1742 135.389 94.566 135.663 92.7185C136.142 89.8104 135.389 87.21 133.815 84.8153C132.412 82.6257 130.633 80.8119 128.512 79.3407C125.501 77.2198 122.661 74.9277 120.335 72.0534C117.222 68.2557 115.237 64.0134 115.374 59.0183C115.442 56.5548 116.024 54.1599 117.016 51.9018C119.856 45.3328 124.748 40.5087 130.462 36.3347C130.017 37.1216 129.572 37.8743 129.128 38.6612C124.064 47.454 124.783 55.802 130.975 63.7739C133.302 66.7845 136.005 69.4874 138.81 72.0534C140.829 73.901 142.642 75.9881 143.874 78.4516C145.892 82.4544 145.687 86.3547 143.155 90.0499C140.726 93.5394 137.373 95.866 133.609 97.7135Z" fill="white"/>
<path d="M0.246048 117.421C4.55694 128.916 10.2706 139.659 17.079 149.855C41.1995 185.95 74.1127 210.242 115.443 223.277C115.75 223.379 116.024 223.482 116.332 223.653C114.622 223.585 112.945 223.208 111.269 222.832C85.232 216.913 62.0697 205.315 42.2259 187.318C24.0928 170.896 11.4339 150.847 3.25683 127.856C2.05936 124.469 0.930315 121.082 0.0065554 117.626C-0.027658 117.386 0.0749811 117.352 0.246048 117.421Z" fill="white"/>
<path fill-rule="evenodd" clip-rule="evenodd" d="M183.254 109.312H126.553C107.671 109.312 88.7533 109.312 69.8705 109.38C69.1864 109.38 68.5023 109.38 67.8521 109.483C65.5938 109.825 64.5333 111.057 64.5333 113.315C64.5333 123.339 64.5333 133.329 64.5677 143.32C64.5677 148.213 65.3543 153.002 66.6204 157.724C66.7573 158.305 67.065 158.716 67.5439 159.058C89.3037 175.378 113.253 187.353 139.392 194.948C139.94 195.085 140.419 195.153 140.966 195.051C145.174 194.264 149.314 193.237 153.351 191.869C153.781 191.719 154.211 191.571 154.641 191.424C158.051 190.252 161.463 189.08 164.471 187.045C171.963 181.913 177.711 175.138 182.159 167.27C182.535 166.585 182.946 166.346 183.733 166.346C186.144 166.397 188.535 166.39 190.937 166.384C191.739 166.382 192.541 166.38 193.347 166.38C193.951 166.37 194.553 166.374 195.152 166.379C196.589 166.391 198.013 166.402 199.437 166.209C212.096 164.43 220.341 152.489 217.467 140.036C215.448 131.345 207.922 124.673 199.026 123.75C196.932 123.517 194.821 123.554 192.717 123.59C191.727 123.607 190.739 123.624 189.755 123.613C189.002 123.613 188.83 123.408 188.83 122.655C188.853 120.558 188.846 118.476 188.838 116.389C188.834 115.343 188.83 114.297 188.83 113.246C188.83 111.536 188.112 110.441 186.504 109.791C185.443 109.38 184.349 109.312 183.254 109.312ZM188.797 132.508V139.214C189.07 144.518 188.352 150.539 186.299 156.424C186.059 157.142 186.299 157.245 186.949 157.245C188.357 157.23 189.758 157.234 191.159 157.239C193.026 157.244 194.891 157.25 196.768 157.211C203.269 157.074 208.709 152.181 209.29 146.057C209.941 139.249 205.835 133.433 199.231 132.064C197.041 131.607 194.805 131.668 192.575 131.729C191.46 131.759 190.347 131.79 189.241 131.756C188.752 131.727 188.771 132.037 188.79 132.339C188.793 132.397 188.797 132.454 188.797 132.508Z" fill="#30D475"/>
<path d="M343.662 17.6648C350.584 17.5659 357.407 17.6649 364.329 17.4671C366.306 17.4671 366.405 18.357 366.405 19.9391C366.405 30.5196 366.405 41.1 366.405 51.6804C366.405 61.7664 366.405 71.8526 366.405 82.235C367.691 81.6415 368.086 80.5538 368.58 79.7628C382.127 59.789 395.674 39.8145 409.122 19.7414C410.21 18.1592 411.298 17.3682 413.276 17.4671C419.801 17.6649 426.427 17.566 433.052 17.566C433.151 19.1481 432.063 19.9391 431.469 20.8291C420.395 37.1447 409.419 53.5591 398.245 69.7759C396.762 71.9513 396.564 73.4345 398.146 75.7087C410.408 94.3974 422.57 113.185 434.832 131.973C435.425 132.863 435.92 133.654 436.711 135.038C430.975 135.038 425.735 135.038 420.494 135.038C417.033 135.038 412.88 136.027 410.21 134.544C407.639 133.159 406.453 129.105 404.673 126.238C397.454 114.669 390.236 103.099 382.918 91.5297C382.819 91.3323 382.622 91.2335 382.226 90.838C378.172 96.2761 374.316 101.715 370.064 106.956C367.295 110.318 366.009 113.778 366.306 118.129C366.702 122.975 366.306 127.82 366.405 132.665C366.504 134.544 365.911 135.137 364.032 135.137C357.209 135.038 350.485 135.137 343.662 135.137C343.662 95.8806 343.662 56.822 343.662 17.6648Z" fill="white"/>
<path d="M958.414 77.7856C956.14 84.9048 954.165 91.2336 952.185 97.5619C948.524 109.23 944.772 120.799 941.209 132.467C940.615 134.346 939.922 135.038 937.849 135.038C933.496 134.841 929.247 134.939 924.894 135.038C923.312 135.038 922.619 134.742 922.122 133.061C913.82 103.001 905.414 73.0392 896.91 42.9788C896.315 40.9023 897.008 40.8034 898.688 40.8034C904.328 40.9023 909.963 41.0012 915.697 40.7045C918.664 40.5068 919.455 41.6934 920.05 44.2643C924.103 62.5575 928.254 80.8507 932.411 99.2426C932.509 99.8361 932.705 100.33 933.103 101.715C936.065 91.2331 938.836 81.6417 941.602 72.0502C943.68 64.8317 945.759 57.6131 947.734 50.4939C948.328 48.4173 949.119 46.4397 950.505 44.6599C954.956 39.0235 963.558 39.6168 967.017 45.9453C970.181 51.8782 971.272 58.6021 973.148 64.931C976.508 76.2031 979.672 87.5745 982.94 98.9464C983.136 99.7374 983.136 100.627 984.025 101.221C988.378 81.9384 992.824 62.6562 997.079 43.3743C997.57 41.2978 998.361 40.8034 1000.34 40.8034C1006.07 40.9023 1011.81 40.9023 1017.64 40.8034C1019.62 40.8034 1020.32 40.9023 1019.62 43.2755C1011.22 73.0392 1003.01 102.901 994.706 132.764C994.308 134.346 993.713 135.137 991.837 135.038C987.386 134.841 983.038 134.841 978.587 135.038C976.71 135.137 976.116 134.346 975.619 132.764C969.984 114.767 964.349 96.771 958.414 77.7856Z" fill="white"/>
<path d="M747.994 88.3658C755.506 77.0931 763.121 65.9192 770.638 54.6465C772.514 51.8781 774.396 49.0105 776.273 46.2418C776.966 45.2529 777.659 44.6597 778.94 44.6597C786.261 44.7586 793.478 44.6597 800.793 44.6597C801.191 45.9452 800.204 46.4396 799.707 47.1317C790.712 59.4922 781.712 71.8525 772.613 84.2124C771.129 86.1903 771.031 87.3768 772.613 89.4535C783.49 103.495 794.171 117.734 804.851 131.874C805.544 132.764 806.133 133.654 807.126 134.939C798.524 134.939 790.412 134.939 782.208 134.939C780.921 134.939 780.626 133.753 780.031 132.962C772.913 123.469 765.892 113.976 758.872 104.582C758.179 103.693 757.486 102.802 756.695 101.715C753.629 106.065 750.76 110.219 747.793 114.372C747.105 115.361 747.302 116.349 747.302 117.338C747.302 122.381 747.203 127.424 747.302 132.467C747.4 134.445 746.904 135.137 744.831 135.038C739.392 134.84 733.953 134.84 728.515 135.038C726.338 135.137 725.842 134.445 725.842 132.269C725.94 107.747 725.842 83.1247 725.842 58.6019C725.842 43.6708 725.842 28.8385 725.744 13.9073C725.744 11.7318 726.142 10.8419 728.613 10.9407C733.555 11.1385 738.497 11.1385 743.445 10.9407C746.413 10.743 747.4 11.4352 747.302 14.6983C747.105 38.3311 747.204 61.9638 747.204 85.5968C747.204 86.4871 747.204 87.3768 747.204 88.267C747.596 88.267 747.793 88.3658 747.994 88.3658Z" fill="white"/>
<path d="M538.856 88.0692C538.856 73.3359 538.955 58.7014 538.757 43.9677C538.757 41.2979 539.548 40.6057 542.02 40.8035C545.283 41.0012 548.643 41.0012 551.911 40.8035C553.984 40.7046 555.369 41.1989 556.062 43.3744C556.755 45.5498 558.037 47.4286 558.729 49.604C559.422 51.6805 560.311 51.9772 562.292 50.9883C568.717 47.8241 575.443 45.1543 581.771 41.7923C586.713 39.1225 591.557 39.5179 596.205 41.5945C606.689 46.1431 612.03 54.5481 613.312 65.7219C613.906 71.2592 613.71 76.7966 613.71 82.3339C613.71 98.8477 613.71 115.46 613.808 131.973C613.808 134.445 613.115 135.039 610.742 134.939C605.702 134.742 600.656 134.742 595.616 134.939C593.041 135.039 592.152 134.544 592.25 131.677C592.452 113.284 592.354 94.8923 592.354 76.4011C592.354 74.1269 592.25 71.8527 591.857 69.6773C590.57 62.4588 584.046 58.8989 577.222 61.6678C572.476 63.6452 567.828 65.7219 562.984 67.5019C560.906 68.2928 560.311 69.3806 560.311 71.556C560.41 91.6291 560.311 111.702 560.41 131.677C560.41 134.248 559.722 134.939 557.246 134.841C552.205 134.643 547.16 134.643 542.119 134.841C539.647 134.939 538.856 134.346 538.856 131.677C538.955 117.24 538.856 102.704 538.856 88.0692Z" fill="white"/>
<path d="M1167.65 86.6847C1167.65 101.814 1167.55 116.943 1167.75 132.072C1167.75 134.544 1167.05 135.137 1164.68 135.038C1159.05 134.841 1153.41 134.841 1147.67 135.038C1145.3 135.137 1144.61 134.445 1144.61 132.072C1144.71 101.814 1144.61 71.6546 1144.71 41.3966C1144.71 38.8256 1144.21 37.9357 1141.44 38.0346C1132.94 38.2324 1124.34 38.0346 1115.83 38.1335C1113.76 38.1335 1113.26 37.5402 1113.26 35.5626C1113.36 30.4207 1113.36 25.2788 1113.26 20.1369C1113.26 18.357 1113.56 17.6648 1115.64 17.6648C1142.83 17.7637 1169.92 17.7637 1197.12 17.6648C1198.7 17.6648 1199.19 18.0604 1199.19 19.7414C1199.09 25.081 1199.09 30.4207 1199.19 35.7603C1199.19 37.6391 1198.7 38.2323 1196.82 38.1335C1188.12 38.0346 1179.32 38.2324 1170.62 38.0346C1168.04 37.9357 1167.65 38.8257 1167.65 41.0999C1167.65 56.2291 1167.65 71.4566 1167.65 86.6847Z" fill="white"/>
<path d="M1072.42 76.0056C1072.42 57.5143 1072.52 39.0235 1072.32 20.4336C1072.32 17.9615 1073.02 17.3683 1075.39 17.4671C1081.23 17.6649 1087.16 17.566 1092.99 17.4671C1094.87 17.4671 1095.37 17.9615 1095.37 19.8403C1095.27 57.4156 1095.27 94.8923 1095.37 132.467C1095.37 134.544 1094.77 135.038 1092.8 134.939C1086.96 134.841 1081.03 134.742 1075.19 134.939C1072.92 135.038 1072.32 134.445 1072.32 132.072C1072.52 113.482 1072.42 94.6942 1072.42 76.0056Z" fill="white"/>
<path fill-rule="evenodd" clip-rule="evenodd" d="M677.915 117.403C679.175 116.731 680.451 116.05 681.738 115.361C681.624 117.4 681.52 119.395 681.422 121.353C681.193 125.948 680.969 130.345 680.555 134.643C679.96 140.279 676.894 143.246 671.358 144.333C666.906 145.124 662.559 144.828 658.206 143.641C655.238 142.85 653.067 141.169 652.767 137.807C652.571 136.043 651.6 136.125 650.427 136.222L650.394 136.225C649.107 136.299 647.825 136.379 646.538 136.46C642.681 136.701 638.824 136.942 634.968 137.016C632.497 137.115 632.398 138.104 632.595 140.082C633.686 149.673 639.026 156.1 647.923 159.463C658.899 163.615 670.272 164.011 681.542 160.946C693.903 157.584 701.322 148.387 702.113 135.533C702.407 130.193 702.407 124.854 702.407 119.514C702.456 106.808 702.456 94.0762 702.456 81.3329C702.456 68.5895 702.456 55.8337 702.505 43.0777C702.505 40.6056 702.009 39.9135 699.44 40.2102C696.467 40.6067 693.537 40.7382 690.592 40.8704C689.13 40.936 687.668 41.0017 686.19 41.1001C680.637 41.5076 675.083 41.469 669.536 41.4304C664.31 41.3941 659.084 41.3578 653.858 41.6934C640.706 42.4844 632.202 49.4062 629.333 62.36C626.365 76.2036 626.169 90.1459 628.94 103.989C631.902 119.02 641.595 127.029 656.231 127.622C658.009 127.721 659.591 127.326 661.173 126.436C666.612 123.431 672.121 120.493 677.915 117.403ZM681.127 84.2131C681.138 82.4991 681.149 80.7852 681.149 79.0712C681.149 77.7375 681.144 76.4043 681.133 75.0695C681.117 71.0584 681.1 67.0338 681.247 62.9529C681.247 61.1735 680.751 60.6788 678.973 60.6788C676.147 60.7917 673.321 60.7759 670.496 60.7595C668.379 60.7475 666.257 60.7355 664.141 60.7775C656.722 60.8768 652.276 64.2387 650.394 71.2592C648.42 78.5765 648.021 86.0918 649.309 93.6065C650.989 103.297 660.088 107.648 668.788 103.099C669.939 102.506 671.096 101.901 672.247 101.297C674.554 100.089 676.862 98.8804 679.169 97.7599C680.555 97.0677 681.149 96.1774 681.149 94.4968C681.084 91.0689 681.106 87.641 681.127 84.2131Z" fill="white"/>
<path fill-rule="evenodd" clip-rule="evenodd" d="M521.453 110.515C523.035 103.297 523.332 95.8807 523.628 88.1679C523.53 81.9384 523.233 75.3133 521.948 68.8858C518.981 53.1636 510.378 43.9676 495.645 40.8033C489.712 39.5179 483.581 39.6168 477.549 40.0123C461.333 41.1989 450.455 50.0982 446.698 65.8206C443.039 81.0487 443.336 96.3749 446.895 111.603C449.961 124.359 457.674 132.962 470.727 135.928C478.538 137.708 486.35 137.807 494.26 136.521C509.389 134.148 518.091 125.15 521.453 110.515ZM500.984 104.286C502.27 98.9464 502.27 93.5078 502.171 88.0692C502.27 83.5203 502.27 78.972 501.677 74.5224C500.984 69.578 499.6 65.0296 495.348 61.964C485.361 54.8447 470.43 59.4923 467.463 71.3579C464.596 82.7293 464.695 94.3975 467.859 105.769C470.232 114.372 476.461 118.327 485.163 117.932C493.667 117.437 499.007 112.987 500.984 104.286Z" fill="white"/>
<path fill-rule="evenodd" clip-rule="evenodd" d="M888.503 110.713C890.184 103.297 890.484 95.7819 890.68 87.8711C890.582 81.8396 890.385 75.412 889.098 69.0837C886.13 53.3613 877.724 44.0664 862.892 40.9021C856.761 39.5178 850.433 39.5178 844.204 40.1111C827.888 41.5943 817.703 50.1971 813.847 66.1173C810.186 81.3448 810.388 96.6716 814.043 111.9C817.207 124.952 825.318 133.456 838.863 136.225C845.982 137.609 853.106 137.807 860.323 136.719C875.946 134.445 884.947 126.04 888.503 110.713ZM868.134 104.187C869.422 98.847 869.422 93.4084 869.318 87.9704C869.422 83.6195 869.422 79.1699 868.827 74.819C868.134 69.7759 866.749 65.1283 862.401 61.9639C852.413 54.7459 837.379 59.4922 834.515 71.3579C831.646 82.7293 831.744 94.3974 834.908 105.769C837.379 114.273 843.609 118.327 852.315 117.832C860.918 117.338 866.154 112.789 868.134 104.187Z" fill="white"/>
<path d="M1199.12 219.406C1198.18 219.406 1197.12 219.406 1196.18 219.406C1191.14 219.406 1191.14 219.406 1189.66 214.678C1189.04 214.363 1188.72 214.888 1188.41 215.309C1183.68 220.351 1175.27 221.822 1169.18 218.565C1165.61 216.674 1163.61 213.523 1163.19 209.741C1162.14 200.182 1162.98 190.517 1162.77 180.957C1162.77 179.801 1163.3 179.381 1164.35 179.486C1164.45 179.486 1164.56 179.486 1164.66 179.486C1173.59 178.751 1173.59 178.751 1173.59 187.575C1173.59 192.933 1173.49 198.291 1173.59 203.648C1173.7 208.796 1175.7 211.317 1179.58 211.632C1184 211.947 1187.14 209.531 1187.98 204.698C1189.25 197.45 1188.51 190.097 1188.51 182.743C1188.51 180.012 1189.25 179.066 1191.98 179.381C1194.39 179.696 1196.81 179.486 1199.12 179.591C1199.12 192.722 1199.12 206.064 1199.12 219.406Z" fill="white"/>
<path d="M912.965 196.82C917.27 191.462 921.999 186.735 926.305 181.692C927.882 179.906 929.458 178.961 931.875 179.171C934.604 179.381 937.23 179.171 940.799 179.171C937.23 183.163 934.181 186.525 931.139 189.991C929.139 192.198 925.882 194.404 925.778 196.715C925.674 199.026 928.826 201.442 930.507 203.858C934.181 208.901 937.861 213.838 941.959 219.301C937.757 219.301 933.973 219.301 930.194 219.301C928.931 219.301 928.618 218.25 928.09 217.515C925.361 213.733 922.73 209.846 919.896 206.064C919.16 205.119 918.742 202.913 917.375 203.753C915.694 204.698 913.277 205.539 913.277 208.376C913.277 211.317 913.173 214.258 913.277 217.199C913.382 218.881 912.965 219.406 911.174 219.406C902.353 219.616 902.353 219.721 902.353 211.107C902.353 196.294 902.458 181.377 902.249 166.565C902.249 164.149 902.771 163.414 905.292 163.414C913.277 163.518 913.277 163.414 913.277 171.292C913.173 179.801 913.59 188.206 912.965 196.82Z" fill="white"/>
<path d="M1001.1 185.159C1005.83 179.066 1011.08 177.911 1017.07 178.646C1023.06 179.381 1027.26 183.058 1027.89 189.046C1028.94 198.606 1028.1 208.27 1028.31 217.83C1028.31 218.985 1027.89 219.406 1026.73 219.3C1026.52 219.3 1026.31 219.3 1026.11 219.3C1017.38 219.721 1017.38 219.721 1017.38 210.897C1017.38 205.644 1017.49 200.392 1017.38 195.139C1017.28 189.887 1015.39 187.365 1011.61 187.05C1006.77 186.734 1003.83 188.941 1002.99 193.983C1001.73 201.337 1002.47 208.795 1002.47 216.149C1002.47 218.565 1001.94 219.511 999.418 219.196C996.897 218.88 993.431 220.351 991.855 218.565C990.597 217.095 991.542 213.733 991.437 211.211C991.437 201.547 991.542 191.777 991.333 182.112C991.333 179.486 992.174 179.066 994.584 178.961C998.577 178.961 1001.42 179.381 1001.1 185.159Z" fill="white"/>
<path d="M1139.77 186.209C1143.02 181.272 1146.91 178.33 1152.59 178.435C1154.68 178.54 1156.26 178.751 1155.42 181.482C1155.42 181.587 1155.42 181.692 1155.42 181.797C1155.32 183.898 1155.73 186.314 1154.79 187.89C1153.74 189.781 1151.01 188.31 1149.11 188.731C1143.66 189.886 1140.82 193.038 1140.71 198.71C1140.61 204.698 1140.61 210.686 1140.71 216.674C1140.71 218.565 1140.4 219.301 1138.3 219.301C1129.79 219.406 1129.79 219.406 1129.79 211.001C1129.79 201.441 1129.89 191.777 1129.68 182.217C1129.68 179.486 1130.52 178.961 1132.94 179.066C1137.88 179.381 1137.88 179.171 1139.77 186.209Z" fill="white"/>
<path fill-rule="evenodd" clip-rule="evenodd" d="M1042.71 219.438C1046.01 219.573 1049.26 219.706 1049.74 214.679C1050.04 214.932 1050.3 215.112 1050.51 215.266C1050.75 215.431 1050.94 215.566 1051.11 215.729C1059.4 223.398 1071.17 220.982 1074.95 210.372C1077.68 202.808 1077.68 194.929 1074.63 187.365C1072.43 181.902 1068.44 178.751 1062.45 178.436C1057.62 178.226 1053.63 179.906 1050.47 184.318V171.713C1050.47 167.32 1050.47 165.14 1049.38 164.11C1048.29 163.071 1046.08 163.202 1041.65 163.414C1039.97 163.519 1039.65 164.044 1039.65 165.514C1039.76 182.743 1039.76 199.971 1039.65 217.2C1039.65 218.986 1040.18 219.406 1041.86 219.406C1042.15 219.414 1042.43 219.426 1042.71 219.438ZM1064.34 206.695C1065.49 204.278 1065.6 201.652 1065.6 199.026C1065.6 196.4 1065.49 193.878 1064.24 191.357C1062.87 188.311 1060.56 186.945 1057.2 187.155C1053.94 187.47 1051.84 189.151 1051.11 192.198C1049.84 196.82 1049.95 201.442 1051.21 206.064C1052.15 209.321 1054.36 210.897 1057.72 211.106C1061.08 211.317 1063.08 209.531 1064.34 206.695Z" fill="white"/>
<path fill-rule="evenodd" clip-rule="evenodd" d="M814.334 187.126C814.323 189.096 814.317 191.067 814.317 193.038C814.317 194.212 814.317 195.39 814.311 196.571C814.294 201.307 814.276 206.083 814.531 210.791C814.531 211.582 814.421 212.468 814.317 213.366C814.056 215.569 813.784 217.835 815.053 218.88C816.154 219.774 818.107 219.633 820.124 219.488C821.184 219.411 822.268 219.333 823.247 219.405C825.137 219.511 825.56 218.88 825.56 216.989C825.508 214.678 825.508 212.393 825.508 210.107C825.508 207.823 825.508 205.538 825.456 203.228C825.456 201.232 825.873 200.497 827.976 200.601C830.289 200.706 832.705 200.601 835.116 200.286C844.366 199.236 850.033 193.143 850.352 184.108C850.665 174.549 846.15 168.876 836.275 167.3C832.381 166.726 828.452 166.81 824.528 166.895C821.996 166.95 819.463 167.004 816.942 166.88C814.844 166.775 814.213 167.3 814.213 169.506C814.369 175.335 814.352 181.223 814.334 187.126ZM825.316 183.234C825.334 183.508 825.351 183.854 825.351 184.319C825.589 185.077 825.45 186.046 825.305 187.05C825.067 188.689 824.824 190.419 826.192 191.462C827.976 192.723 831.233 191.777 833.754 191.042C837.747 189.886 839.845 186.105 839.005 181.797C838.06 176.965 834.067 174.759 826.928 176.125C824.731 176.536 824.998 178.158 825.276 179.818C825.421 180.7 825.566 181.594 825.351 182.323C825.287 182.574 825.299 182.825 825.316 183.234Z" fill="white"/>
<path fill-rule="evenodd" clip-rule="evenodd" d="M1091.23 219.405C1097.95 220.981 1104.05 219.931 1108.77 213.732C1111.36 219.725 1111.4 219.722 1116.5 219.32L1116.76 219.3C1118.23 219.3 1118.54 218.775 1118.54 217.409C1118.54 215.145 1118.55 212.888 1118.56 210.635C1118.58 203.9 1118.6 197.208 1118.44 190.516C1118.23 185.053 1115.08 180.956 1109.83 179.38C1102.47 177.175 1095.33 178.015 1088.4 181.062C1088.26 181.118 1088.12 181.168 1087.98 181.218C1087.33 181.445 1086.69 181.671 1087.03 182.533C1087.26 183.034 1087.47 183.555 1087.68 184.078C1088.37 185.741 1089.06 187.426 1090.18 188.625C1090.98 189.417 1092.06 188.828 1093.14 188.243C1093.64 187.975 1094.13 187.707 1094.59 187.575C1097.43 186.734 1100.37 186.104 1103.31 186.524C1106.36 186.944 1108.25 189.571 1107.83 192.722C1107.52 194.978 1106.06 194.7 1104.72 194.446C1104.25 194.357 1103.8 194.271 1103.42 194.298C1103.17 194.314 1102.93 194.329 1102.69 194.344C1097.99 194.639 1093.32 194.932 1089.03 197.029C1084.61 199.341 1082.62 203.332 1083.14 209.11C1083.67 214.468 1086.4 218.25 1091.23 219.405ZM1107.83 204.908C1108.36 200.916 1108.25 200.706 1103.52 200.916C1101.63 200.916 1099.32 201.021 1097.11 202.282C1094.59 203.752 1093.86 206.064 1094.38 208.69C1095.02 211.421 1097.22 212.052 1099.63 212.052C1104.15 212.052 1107.31 209.321 1107.83 204.908Z" fill="white"/>
<path fill-rule="evenodd" clip-rule="evenodd" d="M891.192 211.301C891.203 210.519 891.215 209.723 891.215 208.901C889.957 209.426 888.908 209.846 887.958 210.056C883.86 211.422 879.555 212.368 875.144 211.527C871.464 210.897 868.943 208.165 868.213 204.594C867.79 202.598 868.213 201.862 870.415 201.967C874.13 202.037 877.839 202.014 881.554 201.991C883.408 201.979 885.263 201.967 887.117 201.967C890.548 201.967 892.281 201.967 893.092 201.103C893.927 200.219 893.794 198.433 893.527 194.824C892.791 186.209 888.381 180.642 880.922 178.856C868.63 176.02 858.964 182.428 857.075 194.824C856.657 197.765 856.657 200.707 857.075 203.648C858.019 210.266 860.963 215.519 867.373 218.145C874.721 221.191 882.075 220.561 889.43 218.04C890.589 217.725 891.319 217.095 891.215 215.729C891.145 214.273 891.168 212.817 891.192 211.301ZM874.107 194.59C874.692 194.602 875.278 194.614 875.88 194.614C876.448 194.614 877.016 194.602 877.578 194.59C878.674 194.567 879.74 194.544 880.714 194.614C883.339 194.929 883.443 193.563 882.916 191.672C882.076 188.206 879.346 186.105 875.776 186.105C872.096 186.105 869.679 187.996 868.526 191.567C867.79 193.669 867.894 194.929 870.624 194.614C871.812 194.544 872.954 194.567 874.107 194.59Z" fill="white"/>
<path fill-rule="evenodd" clip-rule="evenodd" d="M952.882 219.406C959.709 221.192 965.91 219.931 970.633 213.838C973.264 219.826 973.264 219.826 978.828 219.51C979.987 219.406 980.509 219.195 980.509 217.83C980.474 214.717 980.462 211.617 980.451 208.524C980.427 202.326 980.404 196.158 980.196 189.991C980.091 184.529 976.73 180.957 971.479 179.486C964.23 177.385 957.188 178.33 950.362 181.167C948.785 181.797 948.89 182.428 949.521 183.793C950.727 186.36 951.306 187.647 952.268 188.097C953.242 188.549 954.609 188.155 957.397 187.365C960.028 186.63 962.758 186.209 965.487 186.63C968.327 187.05 969.903 189.571 969.689 192.722C969.457 195.218 967.95 194.877 966.629 194.579C966.171 194.475 965.736 194.376 965.383 194.403C964.948 194.431 964.508 194.458 964.073 194.484C959.559 194.754 954.998 195.028 950.779 197.135C946.577 199.236 944.584 203.332 945.001 208.585C945.424 214.363 948.049 218.145 952.882 219.406ZM969.689 204.698C969.903 201.862 969.689 199.761 966.432 200.916C963.702 200.916 961.494 201.022 959.292 202.072C956.667 203.438 955.716 205.749 956.244 208.585C956.771 211.527 959.188 212.052 961.709 212.052C966.223 212.052 969.272 209.11 969.689 204.698Z" fill="white"/>
</g>
<defs>
<clipPath id="clip0_644_10">
<rect width="1211" height="223.653" fill="white"/>
</clipPath>
</defs>
</svg>
